<?xml version="1.0" encoding="utf-8"?>
<!-- Generator: Adobe Illustrator 18.1.0, SVG Export Plug-In . SVG Version: 6.00 Build 0)  -->
<svg version="1.1" id="Calque_1" xmlns="http://www.w3.org/2000/svg" xmlns:xlink="http://www.w3.org/1999/xlink" x="0px" y="0px"
	 viewBox="0 0 14 14" enable-background="new 0 0 14 14" xml:space="preserve">
<path fill="#FEC717" d="M13.7,12.4L10,8.8c0.7-0.9,1-2,1-3.2C11.1,2.5,8.6,0,5.5,0S0,2.5,0,5.6c0,3.1,2.5,5.6,5.5,5.6
	c1.2,0,2.3-0.4,3.2-1l3.6,3.7c0.3,0.3,0.9,0.3,1.3,0l0,0C14.1,13.4,14.1,12.8,13.7,12.4z M5.5,9.8c-2.3,0-4.2-1.9-4.2-4.3
	c0-2.4,1.9-4.3,4.2-4.3s4.2,1.9,4.2,4.3C9.8,7.9,7.9,9.8,5.5,9.8z"/>
</svg>
